<?xml version="1.0" encoding="UTF-8" standalone="no"?>
<!DOCTYPE svg PUBLIC "-//W3C//DTD SVG 1.1//EN" "http://www.w3.org/Graphics/SVG/1.1/DTD/svg11.dtd">
<svg width="100%" height="100%" viewBox="0 0 202 227" version="1.1" xmlns="http://www.w3.org/2000/svg" xmlns:xlink="http://www.w3.org/1999/xlink" xml:space="preserve" xmlns:serif="http://www.serif.com/" style="fill-rule:evenodd;clip-rule:evenodd;stroke-linejoin:round;stroke-miterlimit:2;">
    <g transform="matrix(8.308427,0,0,8.180434,-64.424788,-29.75191)">
        <path d="M16.095,8.535L23.612,12.899L23.612,21.628L16.095,17.264L16.095,8.535Z" style="fill:rgb(128,0,128);"/>
    </g>
    <g transform="matrix(8.308427,0,0,8.180434,-64.424788,-29.75191)">
        <path d="M24.485,12.899L24.485,21.628L32.001,17.264L32.001,8.535L24.485,12.899Z" style="fill:rgb(128,0,128);"/>
    </g>
    <g transform="matrix(8.308427,0,0,8.180434,-64.424788,-29.75191)">
        <path d="M7.754,3.637L7.754,12.366L15.271,16.73L15.271,8.001L7.754,3.637Z" style="fill:rgb(128,0,128);"/>
    </g>
    <g transform="matrix(8.308427,0,0,8.180434,-64.424788,-29.75191)">
        <path d="M16.095,26.914L23.612,31.279L23.612,22.598L16.095,18.234L16.095,26.914Z" style="fill:rgb(128,0,128);"/>
    </g>
</svg>
